<mxfile host="Electron" modified="2023-07-05T09:10:09.385Z" agent="Mozilla/5.0 (Macintosh; Intel Mac OS X 10_15_7) AppleWebKit/537.36 (KHTML, like Gecko) draw.io/21.5.1 Chrome/112.0.5615.204 Electron/24.6.0 Safari/537.36" etag="DIE-oGHKFbF4VN0Mvdf6" version="21.5.1" type="device">
  <diagram name="Page-1" id="6U1NCKin3F8ppmGt7H0f">
    <mxGraphModel dx="1122" dy="793" grid="1" gridSize="10" guides="1" tooltips="1" connect="1" arrows="1" fold="1" page="1" pageScale="1" pageWidth="850" pageHeight="1100" math="0" shadow="0">
      <root>
        <mxCell id="0" />
        <mxCell id="1" parent="0" />
        <mxCell id="VrfPllnBidAQAeL3b49Z-1" value="H1-B to GreenCard (EB-2, EB-3) for Indians" style="text;html=1;strokeColor=none;fillColor=none;align=center;verticalAlign=middle;whiteSpace=wrap;rounded=0;fontStyle=1;fontSize=14;" parent="1" vertex="1">
          <mxGeometry x="280" y="40" width="290" height="40" as="geometry" />
        </mxCell>
        <mxCell id="VrfPllnBidAQAeL3b49Z-3" value="Prevailing Wage Determination (PWD)" style="rounded=1;whiteSpace=wrap;html=1;" parent="1" vertex="1">
          <mxGeometry x="200" y="280" width="280" height="40" as="geometry" />
        </mxCell>
        <mxCell id="VrfPllnBidAQAeL3b49Z-4" value="Get job details of the employee" style="rounded=1;whiteSpace=wrap;html=1;" parent="1" vertex="1">
          <mxGeometry x="240" y="200" width="196" height="40" as="geometry" />
        </mxCell>
        <mxCell id="VrfPllnBidAQAeL3b49Z-5" value="" style="endArrow=classic;html=1;rounded=0;exitX=0.5;exitY=1;exitDx=0;exitDy=0;entryX=0.5;entryY=0;entryDx=0;entryDy=0;" parent="1" source="VrfPllnBidAQAeL3b49Z-3" target="VrfPllnBidAQAeL3b49Z-7" edge="1">
          <mxGeometry relative="1" as="geometry">
            <mxPoint x="290" y="430" as="sourcePoint" />
            <mxPoint x="340" y="400" as="targetPoint" />
          </mxGeometry>
        </mxCell>
        <mxCell id="VrfPllnBidAQAeL3b49Z-6" value="2 Weeks" style="edgeLabel;resizable=0;html=1;align=center;verticalAlign=middle;" parent="VrfPllnBidAQAeL3b49Z-5" connectable="0" vertex="1">
          <mxGeometry relative="1" as="geometry" />
        </mxCell>
        <mxCell id="VrfPllnBidAQAeL3b49Z-7" value="Company will conduct recruitment to show that they could not find a suitable candidate (citizen) for your position" style="rounded=1;whiteSpace=wrap;html=1;" parent="1" vertex="1">
          <mxGeometry x="200" y="360" width="280" height="40" as="geometry" />
        </mxCell>
        <mxCell id="VrfPllnBidAQAeL3b49Z-8" value="Submit PERM to DOL (ETA 9089)" style="rounded=1;whiteSpace=wrap;html=1;" parent="1" vertex="1">
          <mxGeometry x="240" y="440" width="202" height="40" as="geometry" />
        </mxCell>
        <mxCell id="VrfPllnBidAQAeL3b49Z-9" value="File I-140" style="rounded=1;whiteSpace=wrap;html=1;fillColor=#f0a30a;fontColor=#000000;strokeColor=#BD7000;" parent="1" vertex="1">
          <mxGeometry x="300" y="520" width="80" height="40" as="geometry" />
        </mxCell>
        <mxCell id="VrfPllnBidAQAeL3b49Z-10" value="File I-485 (EB-2) GC" style="rounded=1;whiteSpace=wrap;html=1;fillColor=#60a917;fontColor=#ffffff;strokeColor=#2D7600;" parent="1" vertex="1">
          <mxGeometry x="200" y="680" width="120" height="40" as="geometry" />
        </mxCell>
        <mxCell id="VrfPllnBidAQAeL3b49Z-11" value="File I-485 (EB-3) GC" style="rounded=1;whiteSpace=wrap;html=1;fillColor=#60a917;fontColor=#ffffff;strokeColor=#2D7600;" parent="1" vertex="1">
          <mxGeometry x="360" y="680" width="120" height="40" as="geometry" />
        </mxCell>
        <mxCell id="VrfPllnBidAQAeL3b49Z-12" value="" style="endArrow=classic;html=1;rounded=0;entryX=0.5;entryY=0;entryDx=0;entryDy=0;exitX=0.5;exitY=1;exitDx=0;exitDy=0;" parent="1" source="VrfPllnBidAQAeL3b49Z-7" target="VrfPllnBidAQAeL3b49Z-8" edge="1">
          <mxGeometry relative="1" as="geometry">
            <mxPoint x="365" y="430" as="sourcePoint" />
            <mxPoint x="325" y="460" as="targetPoint" />
          </mxGeometry>
        </mxCell>
        <mxCell id="VrfPllnBidAQAeL3b49Z-13" value="60 Days" style="edgeLabel;resizable=0;html=1;align=center;verticalAlign=middle;" parent="VrfPllnBidAQAeL3b49Z-12" connectable="0" vertex="1">
          <mxGeometry relative="1" as="geometry" />
        </mxCell>
        <mxCell id="VrfPllnBidAQAeL3b49Z-14" value="" style="endArrow=classic;html=1;rounded=0;entryX=0.5;entryY=0;entryDx=0;entryDy=0;exitX=0.5;exitY=1;exitDx=0;exitDy=0;" parent="1" source="VrfPllnBidAQAeL3b49Z-8" target="VrfPllnBidAQAeL3b49Z-9" edge="1">
          <mxGeometry relative="1" as="geometry">
            <mxPoint x="425" y="540" as="sourcePoint" />
            <mxPoint x="300" y="560" as="targetPoint" />
          </mxGeometry>
        </mxCell>
        <mxCell id="VrfPllnBidAQAeL3b49Z-15" value="8 Months" style="edgeLabel;resizable=0;html=1;align=center;verticalAlign=middle;" parent="VrfPllnBidAQAeL3b49Z-14" connectable="0" vertex="1">
          <mxGeometry relative="1" as="geometry" />
        </mxCell>
        <mxCell id="VrfPllnBidAQAeL3b49Z-16" value="" style="endArrow=classic;html=1;rounded=0;entryX=0.5;entryY=0;entryDx=0;entryDy=0;exitX=0.5;exitY=1;exitDx=0;exitDy=0;" parent="1" source="VrfPllnBidAQAeL3b49Z-33" target="VrfPllnBidAQAeL3b49Z-10" edge="1">
          <mxGeometry relative="1" as="geometry">
            <mxPoint x="375" y="690" as="sourcePoint" />
            <mxPoint x="250" y="710" as="targetPoint" />
          </mxGeometry>
        </mxCell>
        <mxCell id="VrfPllnBidAQAeL3b49Z-17" value="12 Years" style="edgeLabel;resizable=0;html=1;align=center;verticalAlign=middle;" parent="VrfPllnBidAQAeL3b49Z-16" connectable="0" vertex="1">
          <mxGeometry relative="1" as="geometry" />
        </mxCell>
        <mxCell id="VrfPllnBidAQAeL3b49Z-18" value="" style="endArrow=classic;html=1;rounded=0;entryX=0.5;entryY=0;entryDx=0;entryDy=0;exitX=0.5;exitY=1;exitDx=0;exitDy=0;" parent="1" source="VrfPllnBidAQAeL3b49Z-33" target="VrfPllnBidAQAeL3b49Z-11" edge="1">
          <mxGeometry relative="1" as="geometry">
            <mxPoint x="561" y="690" as="sourcePoint" />
            <mxPoint x="436" y="710" as="targetPoint" />
          </mxGeometry>
        </mxCell>
        <mxCell id="VrfPllnBidAQAeL3b49Z-19" value="14 Years" style="edgeLabel;resizable=0;html=1;align=center;verticalAlign=middle;" parent="VrfPllnBidAQAeL3b49Z-18" connectable="0" vertex="1">
          <mxGeometry relative="1" as="geometry" />
        </mxCell>
        <mxCell id="VrfPllnBidAQAeL3b49Z-21" value="" style="endArrow=classic;html=1;rounded=0;entryX=0.5;entryY=0;entryDx=0;entryDy=0;exitX=0.5;exitY=1;exitDx=0;exitDy=0;" parent="1" source="VrfPllnBidAQAeL3b49Z-4" target="VrfPllnBidAQAeL3b49Z-3" edge="1">
          <mxGeometry relative="1" as="geometry">
            <mxPoint x="660" y="140" as="sourcePoint" />
            <mxPoint x="460" y="280" as="targetPoint" />
          </mxGeometry>
        </mxCell>
        <mxCell id="VrfPllnBidAQAeL3b49Z-22" value="1 Week" style="edgeLabel;resizable=0;html=1;align=center;verticalAlign=middle;" parent="VrfPllnBidAQAeL3b49Z-21" connectable="0" vertex="1">
          <mxGeometry relative="1" as="geometry" />
        </mxCell>
        <mxCell id="VrfPllnBidAQAeL3b49Z-24" value="" style="strokeWidth=2;html=1;shape=mxgraph.flowchart.annotation_2;align=left;labelPosition=right;pointerEvents=1;direction=west;" parent="1" vertex="1">
          <mxGeometry x="520" y="440" width="40" height="40" as="geometry" />
        </mxCell>
        <mxCell id="VrfPllnBidAQAeL3b49Z-25" value="The date when 9089 is submitted to USCIS is considered as Priority Date" style="rounded=1;whiteSpace=wrap;html=1;fillColor=#fa6800;fontColor=#000000;strokeColor=#C73500;" parent="1" vertex="1">
          <mxGeometry x="560" y="440" width="160" height="40" as="geometry" />
        </mxCell>
        <mxCell id="VrfPllnBidAQAeL3b49Z-27" value="" style="strokeWidth=2;html=1;shape=mxgraph.flowchart.annotation_2;align=left;labelPosition=right;pointerEvents=1;direction=west;" parent="1" vertex="1">
          <mxGeometry x="760" y="200" width="40" height="280" as="geometry" />
        </mxCell>
        <mxCell id="VrfPllnBidAQAeL3b49Z-28" value="Get PERM before filling I-140" style="rounded=1;whiteSpace=wrap;html=1;fillColor=#f0a30a;fontColor=#000000;strokeColor=#BD7000;" parent="1" vertex="1">
          <mxGeometry x="800" y="320" width="160" height="40" as="geometry" />
        </mxCell>
        <mxCell id="VrfPllnBidAQAeL3b49Z-29" value="" style="strokeWidth=2;html=1;shape=mxgraph.flowchart.annotation_2;align=left;labelPosition=right;pointerEvents=1;direction=east;" parent="1" vertex="1">
          <mxGeometry x="120" y="200" width="40" height="440" as="geometry" />
        </mxCell>
        <mxCell id="VrfPllnBidAQAeL3b49Z-30" value="1 Year ~ 1.5 Years" style="rounded=1;whiteSpace=wrap;html=1;fillColor=#e51400;fontColor=#ffffff;strokeColor=#B20000;" parent="1" vertex="1">
          <mxGeometry y="400" width="120" height="40" as="geometry" />
        </mxCell>
        <mxCell id="VrfPllnBidAQAeL3b49Z-31" value="" style="strokeWidth=2;html=1;shape=mxgraph.flowchart.annotation_2;align=left;labelPosition=right;pointerEvents=1;direction=east;" parent="1" vertex="1">
          <mxGeometry x="120" y="640" width="40" height="80" as="geometry" />
        </mxCell>
        <mxCell id="VrfPllnBidAQAeL3b49Z-32" value="12 Years ~ 14 Years" style="rounded=1;whiteSpace=wrap;html=1;fillColor=#e51400;fontColor=#ffffff;strokeColor=#B20000;" parent="1" vertex="1">
          <mxGeometry y="660" width="120" height="40" as="geometry" />
        </mxCell>
        <mxCell id="VrfPllnBidAQAeL3b49Z-33" value="I-140 Approval" style="rounded=1;whiteSpace=wrap;html=1;fillColor=#f0a30a;fontColor=#000000;strokeColor=#BD7000;" parent="1" vertex="1">
          <mxGeometry x="298" y="600" width="80" height="40" as="geometry" />
        </mxCell>
        <mxCell id="VrfPllnBidAQAeL3b49Z-34" value="" style="endArrow=classic;html=1;rounded=0;entryX=0.5;entryY=0;entryDx=0;entryDy=0;exitX=0.5;exitY=1;exitDx=0;exitDy=0;" parent="1" source="VrfPllnBidAQAeL3b49Z-9" target="VrfPllnBidAQAeL3b49Z-33" edge="1">
          <mxGeometry relative="1" as="geometry">
            <mxPoint x="562" y="580" as="sourcePoint" />
            <mxPoint x="442" y="560" as="targetPoint" />
          </mxGeometry>
        </mxCell>
        <mxCell id="VrfPllnBidAQAeL3b49Z-35" value="6 Months OR 15 Days with Premium Processing" style="edgeLabel;resizable=0;html=1;align=center;verticalAlign=middle;" parent="VrfPllnBidAQAeL3b49Z-34" connectable="0" vertex="1">
          <mxGeometry relative="1" as="geometry" />
        </mxCell>
        <mxCell id="uZ3j9dNSUw6iLG0-6Et3-1" value="Already employed in a U.S. company and have a valid H1-B" style="rounded=1;whiteSpace=wrap;html=1;" vertex="1" parent="1">
          <mxGeometry x="240" y="120" width="196" height="40" as="geometry" />
        </mxCell>
        <mxCell id="uZ3j9dNSUw6iLG0-6Et3-2" value="" style="endArrow=classic;html=1;rounded=0;entryX=0.5;entryY=0;entryDx=0;entryDy=0;exitX=0.5;exitY=1;exitDx=0;exitDy=0;" edge="1" parent="1" source="uZ3j9dNSUw6iLG0-6Et3-1" target="VrfPllnBidAQAeL3b49Z-4">
          <mxGeometry relative="1" as="geometry">
            <mxPoint x="520" y="160" as="sourcePoint" />
            <mxPoint x="450" y="190" as="targetPoint" />
          </mxGeometry>
        </mxCell>
        <mxCell id="uZ3j9dNSUw6iLG0-6Et3-3" value="Some companies start the PERM process after 1 year of employment" style="edgeLabel;resizable=0;html=1;align=center;verticalAlign=middle;" connectable="0" vertex="1" parent="uZ3j9dNSUw6iLG0-6Et3-2">
          <mxGeometry relative="1" as="geometry" />
        </mxCell>
        <mxCell id="uZ3j9dNSUw6iLG0-6Et3-4" value="" style="strokeWidth=2;html=1;shape=mxgraph.flowchart.annotation_2;align=left;labelPosition=right;pointerEvents=1;direction=west;" vertex="1" parent="1">
          <mxGeometry x="520" y="680" width="40" height="40" as="geometry" />
        </mxCell>
        <mxCell id="uZ3j9dNSUw6iLG0-6Et3-5" value="File I-1485 when Priority Date is current date" style="rounded=1;whiteSpace=wrap;html=1;fillColor=#fa6800;fontColor=#000000;strokeColor=#C73500;" vertex="1" parent="1">
          <mxGeometry x="560" y="680" width="160" height="40" as="geometry" />
        </mxCell>
      </root>
    </mxGraphModel>
  </diagram>
</mxfile>